PathFileType	4	(X/Y/Z)	Walk9.trc
DataRate	CameraRate	NumFrames	NumMarkers	Units	OrigDataRate	OrigDataStartFrame	OrigNumFrames
200.000000	200.000000	4	59	mm	200.000000	274	587
Frame#	Times		LFHD		RFHD		CLAV		STRN		LASI		RASI		RACR1		RUA1		RElbow		RFA1		RWRR		RWRU		RCAR		LACR1		LUA1		LElbow		LFA1		LWRR		RTH3		RTH2		RTB1		RTB2		RTB4		LTH1		LTH3		LTH2		LTB1		LTB2		LTB4		LMT1		LTB3		LCAR		LLFC		LWRU		LMFC		LToe		LMT5		RTB3		RMFC		RMMAL		RElbowM		LTH4		RTH4		RMT1		RLFC		RToe		LBHD		RCAL		RTH1		RBack		RPSI		C7		T10		LPSI		LElbowM		LMMAL		LLMAL		RBHD		LCAL
			X1	Y1	Z1	X2	Y2	Z2	X3	Y3	Z3	X4	Y4	Z4	X5	Y5	Z5	X6	Y6	Z6	X7	Y7	Z7	X8	Y8	Z8	X9	Y9	Z9	X10	Y10	Z10	X11	Y11	Z11	X12	Y12	Z12	X13	Y13	Z13	X14	Y14	Z14	X15	Y15	Z15	X16	Y16	Z16	X17	Y17	Z17	X18	Y18	Z18	X19	Y19	Z19	X20	Y20	Z20	X21	Y21	Z21	X22	Y22	Z22	X23	Y23	Z23	X24	Y24	Z24	X25	Y25	Z25	X26	Y26	Z26	X27	Y27	Z27	X28	Y28	Z28	X29	Y29	Z29	X30	Y30	Z30	X31	Y31	Z31	X32	Y32	Z32	X33	Y33	Z33	X34	Y34	Z34	X35	Y35	Z35	X36	Y36	Z36	X37	Y37	Z37	X38	Y38	Z38	X39	Y39	Z39	X40	Y40	Z40	X41	Y41	Z41	X42	Y42	Z42	X43	Y43	Z43	X44	Y44	Z44	X45	Y45	Z45	X46	Y46	Z46	X47	Y47	Z47	X48	Y48	Z48	X49	Y49	Z49	X50	Y50	Z50	X51	Y51	Z51	X52	Y52	Z52	X53	Y53	Z53	X54	Y54	Z54	X55	Y55	Z55	X56	Y56	Z56	X57	Y57	Z57	X58	Y58	Z58	X59	Y59	Z59

274	1.37	-209.42	1642.2	-80.864	-210.2	1656.8	17.539	-211.98	1398.1	3.6326	-143.64	1242.6	17.472	-263.86	974.87	-149.43	-265.99	988.14	206.38	-329.24	1498.6	165.5	-358.72	1339.8	294.33	-350.48	1195.2	352.48	-301.19	1051.5	368.7	-265.47	937.25	299.12	-271.64	941.93	380.66	-225.68	864.51	347.97	-322.91	1449	-182.19	-370.69	1273.9	-256.88	-401.36	1110.4	-296.12	-385.88	970.26	-303.5	-332.47	848.54	-244.81	-330.97	596.33	254.69	-287.99	691.27	242.76	-385.54	365.03	179.91	-471.09	331.9	230.76	-459.34	319.67	172.04	-289.87	761.14	-169.46	-243.39	598.69	-141.94	-211.78	698.22	-142.08	-165.17	398.8	-74.463	-199.23	305.73	-107.39	-168.69	316.71	-54.153	-108.67	37.703	-19.987	-180.15	231.65	-36.279	-325.75	762.31	-277.87	-244.48	514.27	-138.2	-384.62	830.6	-294.66	-217.92	513.27	17.869	-58.52	32.84	-59.448	-176.88	25.377	-96.381	-532.26	274.5	163.8	-340.31	482.95	96.442	-664.53	225.62	107.5	-395.9	1117.7	258.36	-267.99	680.43	-155.34	-343.96	681.34	256.37	-649.11	83.34	126.1	-354.36	493.36	252.98	-622.57	47.276	164.46	-360.76	1566.5	-83.989	-746.1	277.74	144.45	-358.34	767	257.48	-476.09	1377	120.38	-525.41	1023.1	58.595	-406.68	1479.6	-6.1183	-478.84	1165.7	22.707	-511.54	1031.9	-26.279	-459.64	1063	-194.54	-241.84	85.599	53.166	-271.76	73.956	-30.512	-348.37	1592.4	61.562	-318.84	47.649	28.695
275	1.375	-203.19	1643.3	-81.455	-203.99	1657.9	16.928	-206.04	1399.2	2.8733	-137.75	1243.7	16.475	-258.41	975.83	-150.52	-259.88	989.51	205.74	-323.22	1499.7	164.8	-352.95	1340.9	293.54	-345.22	1196.2	351.59	-296.99	1052	368.11	-262.07	937.35	298.84	-268.28	942.27	380.33	-222.76	864.53	347.92	-317.04	1450.2	-182.96	-363.9	1274.9	-257.86	-393.42	1111.3	-297.34	-376.74	971.28	-304.87	-321.95	850.11	-246.52	-319.5	598.24	254.46	-277.79	693.73	242.4	-371.82	366.96	179.65	-457.23	333.37	230.4	-445.34	321.22	171.67	-285.71	761.57	-170.14	-240.51	598.77	-142.47	-208.11	698.02	-142.71	-163.55	398.4	-74.817	-198.06	305.46	-107.64	-167.46	316.35	-54.416	-108.64	37.723	-20.088	-179.32	231.37	-36.47	-314.21	764.17	-279.83	-242.21	514.29	-138.6	-374.13	831.64	-296.12	-215.7	513.19	17.458	-58.255	32.244	-59.778	-176.91	25.354	-96.45	-517.99	275.67	163.32	-327.67	484.77	96.285	-649.87	226.02	106.88	-391.26	1118.8	257.56	-264.48	680.69	-155.93	-333.63	683.08	255.99	-632.61	84.224	126.15	-341.54	495.34	252.79	-605.66	48.862	164.49	-354.65	1567.8	-84.717	-732.22	277.27	143.59	-349.18	768.53	256.93	-470.13	1378.2	119.51	-519.26	1024.2	57.92	-400.75	1480.7	-6.8218	-472.86	1166.8	21.931	-505.8	1033.1	-26.897	-451.29	1063.2	-195.75	-241.63	85.667	53.146	-271.61	74.073	-30.502	-342.26	1593.6	60.828	-318.78	47.827	28.771
276	1.38	-196.99	1644.4	-81.991	-197.82	1658.9	16.371	-200.14	1400.4	2.1597	-131.87	1244.8	15.53	-252.98	976.8	-151.6	-253.81	990.87	205.2	-317.25	1500.8	164.12	-347.19	1341.9	292.78	-339.98	1197.1	350.73	-292.83	1052.6	367.56	-258.7	937.46	298.6	-264.96	942.61	380.05	-219.87	864.56	347.93	-311.19	1451.5	-183.71	-357.13	1275.9	-258.82	-385.47	1112.1	-298.56	-367.59	972.31	-306.24	-311.42	851.7	-248.22	-308.11	600.24	254.21	-267.67	696.26	242.05	-358.04	368.89	179.4	-443.32	334.76	230.03	-431.25	322.67	171.32	-281.61	761.97	-170.82	-237.71	598.83	-143	-204.5	697.81	-143.37	-161.96	398.01	-75.18	-196.93	305.2	-107.9	-166.26	316	-54.688	-108.6	37.742	-20.194	-178.51	231.1	-36.669	-302.68	766.05	-281.76	-240.01	514.32	-139	-363.61	832.7	-297.58	-213.48	513.12	17.046	-57.99	31.639	-60.109	-176.95	25.329	-96.515	-503.54	276.62	162.86	-315.11	486.66	96.116	-634.93	226.03	106.21	-386.66	1120	256.79	-261.04	680.94	-156.52	-323.36	684.89	255.61	-615.63	84.799	126.15	-328.83	497.39	252.57	-588.17	50.28	164.46	-348.57	1569.2	-85.409	-718.15	276.29	142.65	-340.08	770.13	256.38	-464.2	1379.3	118.66	-513.12	1025.2	57.262	-394.85	1481.9	-7.5032	-466.89	1167.9	21.146	-500.08	1034.3	-27.49	-442.92	1063.5	-196.97	-241.42	85.745	53.125	-271.46	74.202	-30.493	-336.2	1594.8	60.125	-318.7	48.017	28.859
277	1.385	-190.82	1645.5	-82.473	-191.68	1659.8	15.867	-194.27	1401.5	1.4891	-126.02	1245.9	14.635	-247.58	977.79	-152.68	-247.78	992.23	204.75	-311.33	1501.8	163.47	-341.44	1342.9	292.05	-334.77	1198	349.9	-288.71	1053.1	367.05	-255.35	937.58	298.4	-261.66	942.97	379.81	-217	864.62	347.97	-305.37	1452.8	-184.44	-350.39	1277	-259.77	-377.5	1113	-299.76	-358.41	973.36	-307.6	-300.88	853.32	-249.9	-296.81	602.31	253.94	-257.62	698.84	241.7	-344.24	370.81	179.17	-429.37	336.07	229.64	-417.07	324.01	170.98	-277.57	762.36	-171.51	-234.97	598.88	-143.52	-200.96	697.58	-144.06	-160.41	397.63	-75.548	-195.83	304.95	-108.15	-165.09	315.65	-54.965	-108.56	37.758	-20.303	-177.71	230.85	-36.874	-291.15	767.96	-283.64	-237.86	514.34	-139.4	-353.06	833.78	-299.03	-211.25	513.05	16.633	-57.724	31.027	-60.436	-176.98	25.303	-96.577	-488.92	277.36	162.39	-302.62	488.6	95.931	-619.72	225.66	105.48	-382.11	1121.1	256.06	-257.67	681.17	-157.11	-313.16	686.75	255.23	-598.17	85.075	126.11	-316.22	499.49	252.31	-570.13	51.527	164.37	-342.52	1570.5	-86.066	-703.88	274.78	141.63	-331.03	771.77	255.83	-458.3	1380.4	117.82	-507.01	1026.2	56.623	-388.98	1483	-8.1652	-460.94	1169	20.355	-494.37	1035.5	-28.059	-434.54	1063.8	-198.19	-241.2	85.834	53.104	-271.31	74.342	-30.481	-330.18	1595.9	59.453	-318.61	48.221	28.958
